<svg width="0" height="0" style="position: absolute;" aria-hidden="true">
    <symbol id="icon-settings" xmlns="http://www.w3.org/2000/svg" fill="none" viewBox="0 0 24 24" stroke-width="1.5" stroke="currentColor" class="w-6 h-6">
        <path stroke-linecap="round" stroke-linejoin="round" d="M10.343 3.94c.09-.542.56-.94 1.11-.94h1.093c.55 0 1.02.398 1.11.94l.149.894c.07.424.384.764.78.93.398.164.855.142 1.205-.108l.737-.527a1.125 1.125 0 011.45.12l.773.774c.39.389.44 1.002.12 1.45l-.527.737c-.25.35-.272.806-.107 1.204.165.397.505.71.93.78l.893.15c.543.09.94.56.94 1.109v1.094c0 .55-.397 1.02-.94 1.11l-.893.149c-.425.07-.765.383-.93.78-.165.398-.143.854.107 1.204l.527.738c.32.447.269 1.06-.12 1.45l-.774.773a1.125 1.125 0 01-1.449.12l-.738-.527c-.35-.25-.806-.272-1.203-.107-.397.165-.71.505-.781.929l-.149.894c-.09.542-.56.94-1.11.94h-1.094c-.55 0-1.019-.398-1.11-.94l-.148-.894c-.071-.424-.384-.764-.781-.93-.398-.164-.854-.142-1.204.108l-.738.527c-.447.32-1.06.269-1.45-.12l-.773-.774a1.125 1.125 0 01-.12-1.45l.527-.737c.25-.35.273-.806.108-1.204-.165-.397-.505-.71-.93-.78l-.894-.15c-.542-.09-.94-.56-.94-1.109v-1.094c0-.55.398-1.02.94-1.11l.894-.149c.424-.07.765-.383.93-.78.165-.398.143-.854-.107-1.204l-.527-.738a1.125 1.125 0 01.12-1.45l.773-.773a1.125 1.125 0 011.45-.12l.737.527c.35.25.807.272 1.204.107.397-.165.71-.505.78-.929l.15-.894z" />
        <path stroke-linecap="round" stroke-linejoin="round" d="M15 12a3 3 0 11-6 0 3 3 0 016 0z" />
    </symbol>
    <symbol id="icon-document-create" xmlns="http://www.w3.org/2000/svg" fill="none" viewBox="0 0 24 24" stroke-width="1.5" stroke="currentColor" class="w-6 h-6">
        <path stroke-linecap="round" stroke-linejoin="round" d="M19.5 14.25v-2.625a3.375 3.375 0 00-3.375-3.375h-1.5A1.125 1.125 0 0113.5 7.125v-1.5a3.375 3.375 0 00-3.375-3.375H8.25m0 12.75h7.5m-7.5 3H12M10.5 2.25H5.625c-.621 0-1.125.504-1.125 1.125v17.25c0 .621.504 1.125 1.125 1.125h12.75c.621 0 1.125-.504 1.125-1.125V11.25a9 9 0 00-9-9z" />
    </symbol>
    <symbol id="icon-document-ready" xmlns="http://www.w3.org/2000/svg" fill="none" viewBox="0 0 24 24" stroke-width="1.5" stroke="currentColor" class="w-6 h-6">
        <path stroke-linecap="round" stroke-linejoin="round" d="M10.125 2.25h-4.5c-.621 0-1.125.504-1.125 1.125v17.25c0 .621.504 1.125 1.125 1.125h12.75c.621 0 1.125-.504 1.125-1.125v-9M10.125 2.25h.375a9 9 0 019 9v.375M10.125 2.25A3.375 3.375 0 0113.5 5.625v1.5c0 .621.504 1.125 1.125 1.125h1.5a3.375 3.375 0 013.375 3.375M9 15l2.25 2.25L15 12" />
    </symbol>
    <symbol id="icon-refresh" xmlns="http://www.w3.org/2000/svg" fill="none" viewBox="0 0 24 24" stroke-width="1.5" stroke="currentColor" class="w-6 h-6">
        <path stroke-linecap="round" stroke-linejoin="round" d="M16.023 9.348h4.992v-.001M2.985 19.644v-4.992m0 0h4.992m-4.993 0l3.181 3.183a8.25 8.25 0 0013.803-3.7M4.031 9.865a8.25 8.25 0 0113.803-3.7l3.181 3.182m0-4.991v4.99" />
    </symbol>
    <symbol id="icon-share" viewBox="0 0 24 24" fill="none" xmlns="http://www.w3.org/2000/svg">
        <path d="M21 9L21 3M21 3H15M21 3L13 11M10 5H7.8C6.11984 5 5.27976 5 4.63803 5.32698C4.07354 5.6146 3.6146 6.07354 3.32698 6.63803C3 7.27976 3 8.11984 3 9.8V16.2C3 17.8802 3 18.7202 3.32698 19.362C3.6146 19.9265 4.07354 20.3854 4.63803 20.673C5.27976 21 6.11984 21 7.8 21H14.2C15.8802 21 16.7202 21 17.362 20.673C17.9265 20.3854 18.3854 19.9265 18.673 19.362C19 18.7202 19 17.8802 19 16.2V14" stroke="#000000" stroke-width="2" stroke-linecap="round" stroke-linejoin="round"/>
    </symbol>
    <symbol id="icon-drop-down" viewBox="0 0 24 24" xmlns="http://www.w3.org/2000/svg" xmlns:xlink="http://www.w3.org/1999/xlink">
        <title>down_fill</title>
        <g id="页面-1" stroke="none" stroke-width="1" fill="none" fill-rule="evenodd">
            <g id="Arrow" transform="translate(-290.000000, -48.000000)">
                <g id="down_fill" transform="translate(290.000000, 48.000000)">
                    <path d="M24,0 L24,24 L0,24 L0,0 L24,0 Z M12.5934901,23.257841 L12.5819402,23.2595131 L12.5108777,23.2950439 L12.4918791,23.2987469 L12.4918791,23.2987469 L12.4767152,23.2950439 L12.4056548,23.2595131 C12.3958229,23.2563662 12.3870493,23.2590235 12.3821421,23.2649074 L12.3780323,23.275831 L12.360941,23.7031097 L12.3658947,23.7234994 L12.3769048,23.7357139 L12.4804777,23.8096931 L12.4953491,23.8136134 L12.4953491,23.8136134 L12.5071152,23.8096931 L12.6106902,23.7357139 L12.6232938,23.7196733 L12.6232938,23.7196733 L12.6266527,23.7031097 L12.609561,23.275831 C12.6075724,23.2657013 12.6010112,23.2592993 12.5934901,23.257841 L12.5934901,23.257841 Z M12.8583906,23.1452862 L12.8445485,23.1473072 L12.6598443,23.2396597 L12.6498822,23.2499052 L12.6498822,23.2499052 L12.6471943,23.2611114 L12.6650943,23.6906389 L12.6699349,23.7034178 L12.6699349,23.7034178 L12.678386,23.7104931 L12.8793402,23.8032389 C12.8914285,23.8068999 12.9022333,23.8029875 12.9078286,23.7952264 L12.9118235,23.7811639 L12.8776777,23.1665331 C12.8752882,23.1545897 12.8674102,23.1470016 12.8583906,23.1452862 L12.8583906,23.1452862 Z M12.1430473,23.1473072 C12.1332178,23.1423925 12.1221763,23.1452606 12.1156365,23.1525954 L12.1099173,23.1665331 L12.0757714,23.7811639 C12.0751323,23.7926639 12.0828099,23.8018602 12.0926481,23.8045676 L12.108256,23.8032389 L12.3092106,23.7104931 L12.3186497,23.7024347 L12.3186497,23.7024347 L12.3225043,23.6906389 L12.340401,23.2611114 L12.337245,23.2485176 L12.337245,23.2485176 L12.3277531,23.2396597 L12.1430473,23.1473072 Z" id="MingCute" fill-rule="nonzero">

                    </path>
                    <path d="M13.0607,16.0607 C12.4749,16.6465 11.5251,16.6465 10.9393,16.0607 L5.28249,10.4038 C4.6967,9.81804 4.6967,8.86829 5.28248,8.2825 C5.86827,7.69672 6.81802,7.69672 7.40381,8.2825 L12,12.8787 L16.5962,8.2825 C17.182,7.69672 18.1317,7.69672 18.7175,8.2825 C19.3033,8.86829 19.3033,9.81804 18.7175,10.4038 L13.0607,16.0607 Z" id="路径" fill="#000000">

                    </path>
                </g>
            </g>
        </g>
    </symbol>
    <symbol id="icon-drop-up" viewBox="0 0 24 24" xmlns="http://www.w3.org/2000/svg" xmlns:xlink="http://www.w3.org/1999/xlink">
        <title>up_fill</title>
        <g id="页面-1" stroke="none" stroke-width="1" fill="none" fill-rule="evenodd">
            <g id="Arrow" transform="translate(-434.000000, -48.000000)">
                <g id="up_fill" transform="translate(434.000000, 48.000000)">
                    <path d="M24,0 L24,24 L0,24 L0,0 L24,0 Z M12.5934901,23.257841 L12.5819402,23.2595131 L12.5108777,23.2950439 L12.4918791,23.2987469 L12.4918791,23.2987469 L12.4767152,23.2950439 L12.4056548,23.2595131 C12.3958229,23.2563662 12.3870493,23.2590235 12.3821421,23.2649074 L12.3780323,23.275831 L12.360941,23.7031097 L12.3658947,23.7234994 L12.3769048,23.7357139 L12.4804777,23.8096931 L12.4953491,23.8136134 L12.4953491,23.8136134 L12.5071152,23.8096931 L12.6106902,23.7357139 L12.6232938,23.7196733 L12.6232938,23.7196733 L12.6266527,23.7031097 L12.609561,23.275831 C12.6075724,23.2657013 12.6010112,23.2592993 12.5934901,23.257841 L12.5934901,23.257841 Z M12.8583906,23.1452862 L12.8445485,23.1473072 L12.6598443,23.2396597 L12.6498822,23.2499052 L12.6498822,23.2499052 L12.6471943,23.2611114 L12.6650943,23.6906389 L12.6699349,23.7034178 L12.6699349,23.7034178 L12.678386,23.7104931 L12.8793402,23.8032389 C12.8914285,23.8068999 12.9022333,23.8029875 12.9078286,23.7952264 L12.9118235,23.7811639 L12.8776777,23.1665331 C12.8752882,23.1545897 12.8674102,23.1470016 12.8583906,23.1452862 L12.8583906,23.1452862 Z M12.1430473,23.1473072 C12.1332178,23.1423925 12.1221763,23.1452606 12.1156365,23.1525954 L12.1099173,23.1665331 L12.0757714,23.7811639 C12.0751323,23.7926639 12.0828099,23.8018602 12.0926481,23.8045676 L12.108256,23.8032389 L12.3092106,23.7104931 L12.3186497,23.7024347 L12.3186497,23.7024347 L12.3225043,23.6906389 L12.340401,23.2611114 L12.337245,23.2485176 L12.337245,23.2485176 L12.3277531,23.2396597 L12.1430473,23.1473072 Z" id="MingCute" fill-rule="nonzero">

                    </path>
                    <path d="M10.9393,7.93932 C11.5251,7.35354 12.4749,7.35354 13.0607,7.93932 L18.7175,13.5962 C19.3033,14.182 19.3033,15.1317 18.7175,15.7175 C18.1317,16.3033 17.182,16.3033 16.5962,15.7175 L12,11.1213 L7.40381,15.7175 C6.81802,16.3033 5.86827,16.3033 5.28248,15.7175 C4.6967,15.1317 4.6967,14.182 5.28249,13.5962 L10.9393,7.93932 Z" id="路径" fill="#000000">

                    </path>
                </g>
            </g>
        </g>
    </symbol>
    <symbol id="icon-trash" viewBox="0 0 24 24" fill="none" xmlns="http://www.w3.org/2000/svg">
        <path d="M10 10V16M14 10V16M18 6V18C18 19.1046 17.1046 20 16 20H8C6.89543 20 6 19.1046 6 18V6M4 6H20M15 6V5C15 3.89543 14.1046 3 13 3H11C9.89543 3 9 3.89543 9 5V6" stroke="#ff0f0f" stroke-width="1.5" stroke-linecap="round" stroke-linejoin="round"/>
    </symbol>
    <symbol id="icon-add" viewBox="0 0 24 24" fill="none" xmlns="http://www.w3.org/2000/svg">
        <g id="Edit / Add_Plus">
            <path id="Vector" d="M6 12H12M12 12H18M12 12V18M12 12V6" stroke="#000000" stroke-width="2" stroke-linecap="round" stroke-linejoin="round"/>
        </g>
    </symbol>
    <symbol id="icon-question" version="1.1" xmlns="http://www.w3.org/2000/svg"
            xmlns:xlink="http://www.w3.org/1999/xlink"
            viewBox="0 0 512 512" xml:space="preserve">
        <style type="text/css">
            .st0{fill:#000000;}
        </style>
        <g>
            <path class="st0" d="M256,0C114.616,0,0,114.612,0,256s114.616,256,256,256s256-114.612,256-256S397.385,0,256,0z M207.678,378.794
                c0-17.612,14.281-31.893,31.893-31.893c17.599,0,31.88,14.281,31.88,31.893c0,17.595-14.281,31.884-31.88,31.884
                C221.959,410.678,207.678,396.389,207.678,378.794z M343.625,218.852c-3.596,9.793-8.802,18.289-14.695,25.356
                c-11.847,14.148-25.888,22.718-37.442,29.041c-7.719,4.174-14.533,7.389-18.769,9.769c-2.905,1.604-4.479,2.95-5.256,3.826
                c-0.768,0.926-1.029,1.306-1.496,2.826c-0.273,1.009-0.558,2.612-0.558,5.091c0,6.868,0,12.512,0,12.512
                c0,6.472-5.248,11.728-11.723,11.728h-28.252c-6.475,0-11.732-5.256-11.732-11.728c0,0,0-5.645,0-12.512
                c0-6.438,0.752-12.744,2.405-18.777c1.636-6.008,4.215-11.718,7.508-16.694c6.599-10.083,15.542-16.802,23.984-21.48
                c7.401-4.074,14.723-7.455,21.516-11.281c6.789-3.793,12.843-7.91,17.302-12.372c2.988-2.975,5.31-6.05,7.087-9.52
                c2.335-4.628,3.955-10.067,3.992-18.389c0.012-2.463-0.698-5.702-2.632-9.405c-1.926-3.686-5.066-7.694-9.264-11.29
                c-8.45-7.248-20.843-12.545-35.054-12.521c-16.285,0.058-27.186,3.876-35.587,8.62c-8.36,4.776-11.029,9.595-11.029,9.595
                c-4.268,3.718-10.603,3.85-15.025,0.314l-21.71-17.397c-2.719-2.173-4.322-5.438-4.396-8.926c-0.063-3.479,1.425-6.81,4.061-9.099
                c0,0,6.765-10.43,22.451-19.38c15.62-8.992,36.322-15.488,61.236-15.429c20.215,0,38.839,5.562,54.268,14.661
                c15.434,9.148,27.897,21.744,35.851,36.876c5.281,10.074,8.525,21.43,8.533,33.38C349.211,198.042,347.248,209.058,343.625,218.852
                z"/>
        </g>
    </symbol>
    <symbol id="logo" xmlns="http://www.w3.org/2000/svg" xmlns:xlink="http://www.w3.org/1999/xlink" version="1.1" width="36" height="36" viewBox="0 0 36 36" xml:space="preserve">
        <desc>Created with Fabric.js 5.2.4</desc>
                <defs>
        </defs>
        <!--        <rect x="0" y="0" width="100%" height="100%" fill="transparent"></rect>-->
                <g transform="matrix(0 0 0 0 0 0)" id="933e6991-4935-4b77-a707-2a937d7c37b9"  >
        </g>
                <g transform="matrix(1 0 0 1 18 18)" id="f5182c19-e6b0-46ba-9e72-997e3c71dc77"  >
        <rect style="stroke: none; stroke-width: 1; stroke-dasharray: none; stroke-linecap: butt; stroke-dashoffset: 0; stroke-linejoin: miter; stroke-miterlimit: 4; fill: rgb(255,255,255); fill-rule: nonzero; opacity: 1; visibility: hidden;" vector-effect="non-scaling-stroke"  x="-18" y="-18" rx="0" ry="0" width="36" height="36" />
        </g>
                <g transform="matrix(0.32 0 0 0.32 18.17 18.14)"  >
        <path style="stroke: none; stroke-width: 1; stroke-dasharray: none; stroke-linecap: butt; stroke-dashoffset: 0; stroke-linejoin: miter; stroke-miterlimit: 4; fill: rgb(237,192,21); fill-rule: nonzero; opacity: 1;" vector-effect="non-scaling-stroke"  transform=" translate(-52.72, -44.22)" d="M 8.83 73.81 C 24.96 91.63 57.68 92.82000000000001 81.92 76.48 C 106.16 60.13 112.73 32.440000000000005 96.6 14.620000000000005 C 80.48 -3.2 47.76 -4.39 23.52 11.95 C -0.72 28.3 -7.29 56 8.83 73.81" stroke-linecap="round" />
        </g>
                <g transform="matrix(0.32 0 0 0.32 18.07 17.43)"  >
        <path style="stroke: none; stroke-width: 1; stroke-dasharray: none; stroke-linecap: butt; stroke-dashoffset: 0; stroke-linejoin: miter; stroke-miterlimit: 4; fill: rgb(255,255,255); fill-rule: nonzero; opacity: 1;" vector-effect="non-scaling-stroke"  transform=" translate(-52.46, -42.13)" d="M 25.38 62.95 L 24.57 62.92 L 24.57 62.92 C 16.55 62.620000000000005 10.27 56.95 10.27 50.03 C 10.28 48.77 10.61 44.39 14.649999999999999 40.9 C 18.34 37.71 22.82 37.19 24.57 37.12 L 25.37 37.089999999999996 C 25.71 37.08 25.98 36.839999999999996 25.98 36.54 L 25.98 27.2 C 25.98 26.27 26.85 25.52 27.93 25.52 L 39.91 25.52 C 44.11 25.52 47.519999999999996 28.47 47.519999999999996 32.09 L 47.519999999999996 36.510000000000005 C 47.519999999999996 36.790000000000006 47.769999999999996 37.03000000000001 48.099999999999994 37.06 L 48.87 37.120000000000005 C 51.959999999999994 37.370000000000005 55.08 37.75000000000001 58.129999999999995 38.28 C 62.55 39.04 66.94999999999999 40.1 71.19999999999999 41.43 L 71.93999999999998 41.66 C 72.24999999999999 41.76 72.59999999999998 41.629999999999995 72.73999999999998 41.37 L 76.71999999999998 33.739999999999995 C 77.17999999999998 32.85999999999999 77.85999999999999 32.849999999999994 78.21999999999998 32.91 C 78.85999999999999 33.029999999999994 79.48999999999998 33.599999999999994 79.48999999999998 34.61 L 79.40999999999998 44.22 C 79.40999999999998 44.41 79.52999999999999 44.6 79.71999999999998 44.699999999999996 L 80.13999999999999 44.91 C 81.91999999999999 45.81999999999999 83.27999999999999 46.739999999999995 84.18999999999998 47.63999999999999 C 85.04999999999998 48.48 85.48999999999998 49.28999999999999 85.48999999999998 50.03999999999999 C 85.48999999999998 51.26999999999999 84.34999999999998 52.61999999999999 82.09999999999998 54.04999999999999 C 79.60999999999999 55.63999999999999 75.94999999999997 57.17999999999999 71.21999999999998 58.639999999999986 C 62.899999999999984 61.20999999999999 53.54999999999998 62.76999999999999 48.969999999999985 62.929999999999986 L 48.15999999999998 62.95999999999999 C 47.81999999999998 62.969999999999985 47.54999999999998 63.20999999999999 47.54999999999998 63.509999999999984 L 47.54999999999998 64.78999999999998 C 47.54999999999998 66.14999999999998 46.26999999999998 67.25999999999998 44.68999999999998 67.25999999999998 L 28.84 67.25999999999998 C 27.259999999999998 67.25999999999998 25.98 66.14999999999998 25.98 64.78999999999998 L 25.98 63.5 C 25.99 63.21 25.72 62.97 25.38 62.95 M 32.28 18.36 L 30.17 18.36 C 29.720000000000002 18.36 29.35 18.04 29.35 17.65 C 29.35 17.259999999999998 29.720000000000002 16.939999999999998 30.17 16.939999999999998 L 33.74 16.939999999999998 C 34.190000000000005 16.939999999999998 34.56 17.259999999999998 34.56 17.65 L 34.56 22.95 L 32.92 22.95 L 32.92 18.9 C 32.91 18.61 32.63 18.36 32.28 18.36 M 81.98 65.97 C 81.72 66.36 81.25 66.59 80.72 66.59 L 76.41 66.59 C 75.61 66.59 74.95 66.03 74.95 65.33 L 74.95 60.129999999999995 C 76.12 59.72 77.22 59.309999999999995 78.25 58.88999999999999 L 82 64.73 C 82.25 65.12 82.24 65.59 81.98 65.97 M 91.07 56.19 L 92.22999999999999 52.94 L 92.69999999999999 52.94 L 93.85999999999999 56.19 C 93.96999999999998 56.5 93.92999999999998 56.809999999999995 93.85999999999999 57.01 L 91.07999999999998 57.01 C 91 56.81 90.96 56.49 91.07 56.19 M 88.39 49.43 L 94.66 49.43 L 94.66 50.38 L 88.41 50.38 C 88.42 50.260000000000005 88.42999999999999 50.14 88.42999999999999 50.02 C 88.43 49.83 88.41 49.63 88.39 49.43 M 92.19 46.87 L 91.07 43.739999999999995 C 90.96 43.44 91 43.12 91.07 42.919999999999995 L 93.85 42.919999999999995 C 93.91999999999999 43.12 93.96 43.44 93.85 43.739999999999995 L 92.72999999999999 46.87 L 92.19 46.87 z M 97.62 50.47 L 97.62 49.339999999999996 C 97.62 48.309999999999995 96.86 47.4 95.78 47.04 L 96.69 44.5 C 97.09 43.38 96.88 42.1 96.16 41.26 C 95.67 40.69 94.99 40.379999999999995 94.25 40.379999999999995 L 90.69 40.379999999999995 C 89.95 40.379999999999995 89.27 40.69 88.78 41.26 C 88.06 42.11 87.85 43.379999999999995 88.25 44.5 L 89.1 46.88 L 87.24 46.88 C 87.05 46.64 86.85 46.400000000000006 86.61999999999999 46.17 C 85.63 45.13 84.19999999999999 44.1 82.35999999999999 43.1 L 82.41999999999999 34.63 C 82.42999999999999 33.57 82.07 32.61 81.38999999999999 31.85 C 80.74999999999999 31.12 79.82999999999998 30.62 78.82999999999998 30.43 C 77.86999999999999 30.25 76.91999999999999 30.36 76.06999999999998 30.74 C 75.17999999999998 31.139999999999997 74.45999999999998 31.82 73.99999999999999 32.699999999999996 L 70.89999999999999 38.63999999999999 C 66.91999999999999 37.449999999999996 62.81999999999999 36.489999999999995 58.69999999999999 35.779999999999994 C 55.98999999999999 35.31999999999999 53.22999999999999 34.949999999999996 50.47999999999999 34.699999999999996 L 50.47999999999999 32.099999999999994 C 50.47999999999999 30.869999999999994 50.19999999999999 29.669999999999995 49.64999999999999 28.549999999999994 C 49.11999999999999 27.459999999999994 48.35999999999999 26.489999999999995 47.37999999999999 25.649999999999995 C 46.40999999999999 24.809999999999995 45.27999999999999 24.159999999999997 44.01999999999999 23.699999999999996 C 42.71999999999999 23.219999999999995 41.32999999999999 22.979999999999997 39.89999999999999 22.979999999999997 L 37.49999999999999 22.979999999999997 L 37.49999999999999 17.679999999999996 C 37.49999999999999 15.879999999999995 35.809999999999995 14.419999999999996 33.71999999999999 14.419999999999996 L 30.14999999999999 14.419999999999996 C 28.069999999999993 14.419999999999996 26.36999999999999 15.879999999999995 26.36999999999999 17.679999999999996 C 26.36999999999999 19.419999999999995 27.94999999999999 20.839999999999996 29.93999999999999 20.939999999999998 L 29.93999999999999 22.99 L 27.91999999999999 22.99 C 25.20999999999999 22.99 23.00999999999999 24.889999999999997 23.00999999999999 27.22 L 23.00999999999999 34.7 C 21.99999999999999 34.82 20.629999999999992 35.050000000000004 19.11999999999999 35.52 C 16.609999999999992 36.300000000000004 14.399999999999991 37.510000000000005 12.53999999999999 39.120000000000005 C 11.35999999999999 40.14000000000001 10.35999999999999 41.290000000000006 9.56999999999999 42.540000000000006 C 8.91999999999999 43.57000000000001 8.38999999999999 44.68000000000001 8.00999999999999 45.830000000000005 C 7.429999999999989 47.60000000000001 7.299999999999989 49.10000000000001 7.299999999999989 50.050000000000004 C 7.299999999999989 54.06 9.06999999999999 57.870000000000005 12.289999999999988 60.760000000000005 C 13.849999999999989 62.17 15.679999999999989 63.290000000000006 17.72999999999999 64.11 C 19.41999999999999 64.78 21.20999999999999 65.22 23.059999999999988 65.41 C 23.40999999999999 67.89 25.889999999999986 69.83 28.829999999999988 69.83 L 44.65999999999999 69.83 C 47.58999999999999 69.83 50.06999999999999 67.89999999999999 50.42999999999999 65.42999999999999 C 52.88999999999999 65.24999999999999 56.059999999999995 64.80999999999999 59.419999999999995 64.19 C 63.75999999999999 63.379999999999995 68.11 62.32 71.99 61.129999999999995 L 71.99 65.36999999999999 C 71.99 67.46999999999998 73.97 69.17999999999999 76.41 69.17999999999999 L 80.72 69.17999999999999 C 82.3 69.17999999999999 83.72 68.47999999999999 84.52 67.3 C 85.32 66.13 85.35 64.71 84.58 63.519999999999996 L 80.89 57.739999999999995 C 81.75 57.31999999999999 82.54 56.89999999999999 83.25 56.46999999999999 C 85.16 55.32999999999999 86.55 54.14999999999999 87.4 52.94999999999999 L 89.13000000000001 52.94999999999999 L 88.24000000000001 55.44999999999999 C 87.84 56.569999999999986 88.05000000000001 57.84999999999999 88.77000000000001 58.68999999999999 C 89.26 59.25999999999999 89.94000000000001 59.56999999999999 90.68 59.56999999999999 L 94.24000000000001 59.56999999999999 C 94.98 59.56999999999999 95.66000000000001 59.25999999999999 96.15 58.68999999999999 C 96.87 57.84999999999999 97.08000000000001 56.56999999999999 96.68 55.44999999999999 L 95.74000000000001 52.79999999999999 C 96.84 52.44 97.62 51.52 97.62 50.47" stroke-linecap="round" />
        </g>
                <g transform="matrix(0.32 0 0 0.32 12.94 19.82)"  >
        <path style="stroke: none; stroke-width: 1; stroke-dasharray: none; stroke-linecap: butt; stroke-dashoffset: 0; stroke-linejoin: miter; stroke-miterlimit: 4; fill: rgb(255,255,255); fill-rule: nonzero; opacity: 1;" vector-effect="non-scaling-stroke"  transform=" translate(-36.67, -49.91)" d="M 34.07 49.9 C 34.07 48.66 35.24 47.65 36.67 47.65 C 38.11 47.65 39.27 48.66 39.27 49.9 C 39.27 51.14 38.1 52.15 36.67 52.15 C 35.24 52.15 34.07 51.14 34.07 49.9 M 36.67 54.71 C 39.74 54.71 42.230000000000004 52.56 42.230000000000004 49.910000000000004 C 42.230000000000004 47.260000000000005 39.74 45.11000000000001 36.67 45.11000000000001 C 33.6 45.11000000000001 31.110000000000003 47.260000000000005 31.110000000000003 49.910000000000004 C 31.11 52.55 33.6 54.71 36.67 54.71" stroke-linecap="round" />
        </g>
                <g transform="matrix(0.32 0 0 0.32 8.26 19.82)"  >
        <path style="stroke: none; stroke-width: 1; stroke-dasharray: none; stroke-linecap: butt; stroke-dashoffset: 0; stroke-linejoin: miter; stroke-miterlimit: 4; fill: rgb(255,255,255); fill-rule: nonzero; opacity: 1;" vector-effect="non-scaling-stroke"  transform=" translate(-21.89, -49.9)" d="M 24.49 49.91 C 24.49 51.15 23.32 52.16 21.889999999999997 52.16 C 20.449999999999996 52.16 19.289999999999996 51.15 19.289999999999996 49.91 C 19.289999999999996 48.669999999999995 20.459999999999994 47.66 21.889999999999997 47.66 C 23.33 47.66 24.49 48.67 24.49 49.91 M 21.89 45.1 C 18.82 45.1 16.330000000000002 47.25 16.330000000000002 49.9 C 16.330000000000002 52.55 18.82 54.699999999999996 21.89 54.699999999999996 C 24.96 54.699999999999996 27.45 52.55 27.45 49.9 C 27.45 47.26 24.96 45.1 21.89 45.1" stroke-linecap="round" />
        </g>
                <g transform="matrix(0.32 0 0 0.32 17.31 19.82)"  >
        <path style="stroke: none; stroke-width: 1; stroke-dasharray: none; stroke-linecap: butt; stroke-dashoffset: 0; stroke-linejoin: miter; stroke-miterlimit: 4; fill: rgb(255,255,255); fill-rule: nonzero; opacity: 1;" vector-effect="non-scaling-stroke"  transform=" translate(-50.47, -49.91)" d="M 47.87 49.9 C 47.87 48.66 49.04 47.65 50.47 47.65 C 51.91 47.65 53.07 48.66 53.07 49.9 C 53.07 51.14 51.9 52.15 50.47 52.15 C 49.04 52.15 47.87 51.14 47.87 49.9 M 50.47 54.71 C 53.54 54.71 56.03 52.56 56.03 49.910000000000004 C 56.03 47.260000000000005 53.53 45.11000000000001 50.47 45.11000000000001 C 47.4 45.11000000000001 44.91 47.260000000000005 44.91 49.910000000000004 C 44.91 52.55 47.41 54.71 50.47 54.71" stroke-linecap="round" />
        </g>
                <g transform="matrix(0.32 0 0 0.32 13.04 24.48)"  >
        <path style="stroke: none; stroke-width: 1; stroke-dasharray: none; stroke-linecap: butt; stroke-dashoffset: 0; stroke-linejoin: miter; stroke-miterlimit: 4; fill: rgb(255,255,255); fill-rule: nonzero; opacity: 1;" vector-effect="non-scaling-stroke"  transform=" translate(-36.95, -64.67)" d="M 27.83 64.67 C 27.83 65.35000000000001 28.47 65.91 29.259999999999998 65.91 L 44.65 65.91 C 45.44 65.91 46.08 65.35 46.08 64.67 C 46.08 63.99 45.44 63.43 44.65 63.43 L 29.27 63.43 C 28.47 63.43 27.83 63.98 27.83 64.67" stroke-linecap="round" />
        </g>
                <g transform="matrix(0.32 0 0 0.32 12.28 14.44)"  >
        <path style="stroke: none; stroke-width: 1; stroke-dasharray: none; stroke-linecap: butt; stroke-dashoffset: 0; stroke-linejoin: miter; stroke-miterlimit: 4; fill: rgb(255,255,255); fill-rule: nonzero; opacity: 1;" vector-effect="non-scaling-stroke"  transform=" translate(-34.59, -32.93)" d="M 39.03 38.49 C 39.300000000000004 38.72 39.660000000000004 38.85 40.04 38.85 C 40.42 38.85 40.78 38.72 41.05 38.49 C 41.32 38.260000000000005 41.47 37.940000000000005 41.47 37.620000000000005 C 41.47 37.290000000000006 41.32 36.980000000000004 41.05 36.75000000000001 L 30.169999999999995 27.360000000000007 C 29.629999999999995 26.890000000000008 28.689999999999994 26.890000000000008 28.139999999999993 27.360000000000007 C 27.579999999999995 27.840000000000007 27.579999999999995 28.630000000000006 28.139999999999993 29.110000000000007 L 39.03 38.49 z" stroke-linecap="round" />
        </g>
                <g transform="matrix(0.32 0 0 0.32 13.42 13.74)"  >
        <path style="stroke: none; stroke-width: 1; stroke-dasharray: none; stroke-linecap: butt; stroke-dashoffset: 0; stroke-linejoin: miter; stroke-miterlimit: 4; fill: rgb(255,255,255); fill-rule: nonzero; opacity: 1;" vector-effect="non-scaling-stroke"  transform=" translate(-38.2, -30.72)" d="M 40.41 34.36 C 40.41 34.36 40.41 34.36 40.41 34.36 C 40.68 34.589999999999996 41.04 34.72 41.419999999999995 34.72 C 41.79999999999999 34.72 42.16 34.589999999999996 42.42999999999999 34.36 C 42.699999999999996 34.13 42.849999999999994 33.82 42.849999999999994 33.49 C 42.849999999999994 33.160000000000004 42.699999999999996 32.85 42.42999999999999 32.620000000000005 L 36.00999999999999 27.080000000000005 C 35.46999999999999 26.610000000000007 34.529999999999994 26.610000000000007 33.97999999999999 27.080000000000005 C 33.70999999999999 27.310000000000006 33.55999999999999 27.620000000000005 33.55999999999999 27.950000000000006 C 33.55999999999999 28.280000000000005 33.70999999999999 28.590000000000007 33.97999999999999 28.820000000000007 L 40.41 34.36 z" stroke-linecap="round" />
        </g>
                <g transform="matrix(0.32 0 0 0.32 14.61 13.12)"  >
        <path style="stroke: none; stroke-width: 1; stroke-dasharray: none; stroke-linecap: butt; stroke-dashoffset: 0; stroke-linejoin: miter; stroke-miterlimit: 4; fill: rgb(255,255,255); fill-rule: nonzero; opacity: 1;" vector-effect="non-scaling-stroke"  transform=" translate(-42.01, -28.79)" d="M 42.12 30.62 C 42.12 30.62 42.12 30.62 42.12 30.62 C 42.39 30.85 42.75 30.98 43.129999999999995 30.98 C 43.50999999999999 30.98 43.87 30.85 44.13999999999999 30.62 C 44.41 30.39 44.559999999999995 30.080000000000002 44.559999999999995 29.75 C 44.559999999999995 29.42 44.41 29.11 44.13999999999999 28.88 L 41.919999999999995 26.96 C 41.35999999999999 26.48 40.449999999999996 26.48 39.88999999999999 26.96 C 39.61999999999999 27.19 39.46999999999999 27.5 39.46999999999999 27.830000000000002 C 39.46999999999999 28.16 39.61999999999999 28.470000000000002 39.88999999999999 28.700000000000003 L 42.12 30.62 z" stroke-linecap="round" />
        </g>
                <g transform="matrix(0.32 0 0 0.32 11 15.04)"  >
        <path style="stroke: none; stroke-width: 1; stroke-dasharray: none; stroke-linecap: butt; stroke-dashoffset: 0; stroke-linejoin: miter; stroke-miterlimit: 4; fill: rgb(255,255,255); fill-rule: nonzero; opacity: 1;" vector-effect="non-scaling-stroke"  transform=" translate(-30.61, -34.85)" d="M 30.52 33.02 C 29.96 32.540000000000006 29.05 32.540000000000006 28.49 33.02 C 27.93 33.5 27.93 34.290000000000006 28.49 34.77 L 30.709999999999997 36.68 C 30.979999999999997 36.91 31.339999999999996 37.04 31.72 37.04 C 32.1 37.04 32.46 36.91 32.73 36.68 C 33 36.45 33.15 36.14 33.15 35.81 C 33.15 35.480000000000004 33 35.17 32.73 34.940000000000005 L 30.52 33.02 z" stroke-linecap="round" />
        </g>
    </symbol>
</svg>
