<svg width="0" height="0" style="position: absolute;" aria-hidden="true">
    <symbol id="icon-settings" xmlns="http://www.w3.org/2000/svg" fill="none" viewBox="0 0 24 24" stroke-width="1.5" stroke="currentColor" class="w-6 h-6">
        <path stroke-linecap="round" stroke-linejoin="round" d="M10.343 3.94c.09-.542.56-.94 1.11-.94h1.093c.55 0 1.02.398 1.11.94l.149.894c.07.424.384.764.78.93.398.164.855.142 1.205-.108l.737-.527a1.125 1.125 0 011.45.12l.773.774c.39.389.44 1.002.12 1.45l-.527.737c-.25.35-.272.806-.107 1.204.165.397.505.71.93.78l.893.15c.543.09.94.56.94 1.109v1.094c0 .55-.397 1.02-.94 1.11l-.893.149c-.425.07-.765.383-.93.78-.165.398-.143.854.107 1.204l.527.738c.32.447.269 1.06-.12 1.45l-.774.773a1.125 1.125 0 01-1.449.12l-.738-.527c-.35-.25-.806-.272-1.203-.107-.397.165-.71.505-.781.929l-.149.894c-.09.542-.56.94-1.11.94h-1.094c-.55 0-1.019-.398-1.11-.94l-.148-.894c-.071-.424-.384-.764-.781-.93-.398-.164-.854-.142-1.204.108l-.738.527c-.447.32-1.06.269-1.45-.12l-.773-.774a1.125 1.125 0 01-.12-1.45l.527-.737c.25-.35.273-.806.108-1.204-.165-.397-.505-.71-.93-.78l-.894-.15c-.542-.09-.94-.56-.94-1.109v-1.094c0-.55.398-1.02.94-1.11l.894-.149c.424-.07.765-.383.93-.78.165-.398.143-.854-.107-1.204l-.527-.738a1.125 1.125 0 01.12-1.45l.773-.773a1.125 1.125 0 011.45-.12l.737.527c.35.25.807.272 1.204.107.397-.165.71-.505.78-.929l.15-.894z" />
        <path stroke-linecap="round" stroke-linejoin="round" d="M15 12a3 3 0 11-6 0 3 3 0 016 0z" />
    </symbol>
    <symbol id="icon-document-create" xmlns="http://www.w3.org/2000/svg" fill="none" viewBox="0 0 24 24" stroke-width="1.5" stroke="currentColor" class="w-6 h-6">
        <path stroke-linecap="round" stroke-linejoin="round" d="M19.5 14.25v-2.625a3.375 3.375 0 00-3.375-3.375h-1.5A1.125 1.125 0 0113.5 7.125v-1.5a3.375 3.375 0 00-3.375-3.375H8.25m0 12.75h7.5m-7.5 3H12M10.5 2.25H5.625c-.621 0-1.125.504-1.125 1.125v17.25c0 .621.504 1.125 1.125 1.125h12.75c.621 0 1.125-.504 1.125-1.125V11.25a9 9 0 00-9-9z" />
    </symbol>
    <symbol id="icon-document-ready" xmlns="http://www.w3.org/2000/svg" fill="none" viewBox="0 0 24 24" stroke-width="1.5" stroke="currentColor" class="w-6 h-6">
        <path stroke-linecap="round" stroke-linejoin="round" d="M10.125 2.25h-4.5c-.621 0-1.125.504-1.125 1.125v17.25c0 .621.504 1.125 1.125 1.125h12.75c.621 0 1.125-.504 1.125-1.125v-9M10.125 2.25h.375a9 9 0 019 9v.375M10.125 2.25A3.375 3.375 0 0113.5 5.625v1.5c0 .621.504 1.125 1.125 1.125h1.5a3.375 3.375 0 013.375 3.375M9 15l2.25 2.25L15 12" />
    </symbol>
    <symbol id="icon-refresh" xmlns="http://www.w3.org/2000/svg" fill="none" viewBox="0 0 24 24" stroke-width="1.5" stroke="currentColor" class="w-6 h-6">
        <path stroke-linecap="round" stroke-linejoin="round" d="M16.023 9.348h4.992v-.001M2.985 19.644v-4.992m0 0h4.992m-4.993 0l3.181 3.183a8.25 8.25 0 0013.803-3.7M4.031 9.865a8.25 8.25 0 0113.803-3.7l3.181 3.182m0-4.991v4.99" />
    </symbol>
    <symbol id="icon-share" viewBox="0 0 24 24" fill="none" xmlns="http://www.w3.org/2000/svg">
        <path d="M21 9L21 3M21 3H15M21 3L13 11M10 5H7.8C6.11984 5 5.27976 5 4.63803 5.32698C4.07354 5.6146 3.6146 6.07354 3.32698 6.63803C3 7.27976 3 8.11984 3 9.8V16.2C3 17.8802 3 18.7202 3.32698 19.362C3.6146 19.9265 4.07354 20.3854 4.63803 20.673C5.27976 21 6.11984 21 7.8 21H14.2C15.8802 21 16.7202 21 17.362 20.673C17.9265 20.3854 18.3854 19.9265 18.673 19.362C19 18.7202 19 17.8802 19 16.2V14" stroke="#000000" stroke-width="2" stroke-linecap="round" stroke-linejoin="round"/>
    </symbol>
    <symbol id="icon-drop-down" viewBox="0 0 24 24" xmlns="http://www.w3.org/2000/svg" xmlns:xlink="http://www.w3.org/1999/xlink">
        <title>down_fill</title>
        <g id="页面-1" stroke="none" stroke-width="1" fill="none" fill-rule="evenodd">
            <g id="Arrow" transform="translate(-290.000000, -48.000000)">
                <g id="down_fill" transform="translate(290.000000, 48.000000)">
                    <path d="M24,0 L24,24 L0,24 L0,0 L24,0 Z M12.5934901,23.257841 L12.5819402,23.2595131 L12.5108777,23.2950439 L12.4918791,23.2987469 L12.4918791,23.2987469 L12.4767152,23.2950439 L12.4056548,23.2595131 C12.3958229,23.2563662 12.3870493,23.2590235 12.3821421,23.2649074 L12.3780323,23.275831 L12.360941,23.7031097 L12.3658947,23.7234994 L12.3769048,23.7357139 L12.4804777,23.8096931 L12.4953491,23.8136134 L12.4953491,23.8136134 L12.5071152,23.8096931 L12.6106902,23.7357139 L12.6232938,23.7196733 L12.6232938,23.7196733 L12.6266527,23.7031097 L12.609561,23.275831 C12.6075724,23.2657013 12.6010112,23.2592993 12.5934901,23.257841 L12.5934901,23.257841 Z M12.8583906,23.1452862 L12.8445485,23.1473072 L12.6598443,23.2396597 L12.6498822,23.2499052 L12.6498822,23.2499052 L12.6471943,23.2611114 L12.6650943,23.6906389 L12.6699349,23.7034178 L12.6699349,23.7034178 L12.678386,23.7104931 L12.8793402,23.8032389 C12.8914285,23.8068999 12.9022333,23.8029875 12.9078286,23.7952264 L12.9118235,23.7811639 L12.8776777,23.1665331 C12.8752882,23.1545897 12.8674102,23.1470016 12.8583906,23.1452862 L12.8583906,23.1452862 Z M12.1430473,23.1473072 C12.1332178,23.1423925 12.1221763,23.1452606 12.1156365,23.1525954 L12.1099173,23.1665331 L12.0757714,23.7811639 C12.0751323,23.7926639 12.0828099,23.8018602 12.0926481,23.8045676 L12.108256,23.8032389 L12.3092106,23.7104931 L12.3186497,23.7024347 L12.3186497,23.7024347 L12.3225043,23.6906389 L12.340401,23.2611114 L12.337245,23.2485176 L12.337245,23.2485176 L12.3277531,23.2396597 L12.1430473,23.1473072 Z" id="MingCute" fill-rule="nonzero">

                    </path>
                    <path d="M13.0607,16.0607 C12.4749,16.6465 11.5251,16.6465 10.9393,16.0607 L5.28249,10.4038 C4.6967,9.81804 4.6967,8.86829 5.28248,8.2825 C5.86827,7.69672 6.81802,7.69672 7.40381,8.2825 L12,12.8787 L16.5962,8.2825 C17.182,7.69672 18.1317,7.69672 18.7175,8.2825 C19.3033,8.86829 19.3033,9.81804 18.7175,10.4038 L13.0607,16.0607 Z" id="路径" fill="#000000">

                    </path>
                </g>
            </g>
        </g>
    </symbol>
    <symbol id="icon-drop-up" viewBox="0 0 24 24" xmlns="http://www.w3.org/2000/svg" xmlns:xlink="http://www.w3.org/1999/xlink">
        <title>up_fill</title>
        <g id="页面-1" stroke="none" stroke-width="1" fill="none" fill-rule="evenodd">
            <g id="Arrow" transform="translate(-434.000000, -48.000000)">
                <g id="up_fill" transform="translate(434.000000, 48.000000)">
                    <path d="M24,0 L24,24 L0,24 L0,0 L24,0 Z M12.5934901,23.257841 L12.5819402,23.2595131 L12.5108777,23.2950439 L12.4918791,23.2987469 L12.4918791,23.2987469 L12.4767152,23.2950439 L12.4056548,23.2595131 C12.3958229,23.2563662 12.3870493,23.2590235 12.3821421,23.2649074 L12.3780323,23.275831 L12.360941,23.7031097 L12.3658947,23.7234994 L12.3769048,23.7357139 L12.4804777,23.8096931 L12.4953491,23.8136134 L12.4953491,23.8136134 L12.5071152,23.8096931 L12.6106902,23.7357139 L12.6232938,23.7196733 L12.6232938,23.7196733 L12.6266527,23.7031097 L12.609561,23.275831 C12.6075724,23.2657013 12.6010112,23.2592993 12.5934901,23.257841 L12.5934901,23.257841 Z M12.8583906,23.1452862 L12.8445485,23.1473072 L12.6598443,23.2396597 L12.6498822,23.2499052 L12.6498822,23.2499052 L12.6471943,23.2611114 L12.6650943,23.6906389 L12.6699349,23.7034178 L12.6699349,23.7034178 L12.678386,23.7104931 L12.8793402,23.8032389 C12.8914285,23.8068999 12.9022333,23.8029875 12.9078286,23.7952264 L12.9118235,23.7811639 L12.8776777,23.1665331 C12.8752882,23.1545897 12.8674102,23.1470016 12.8583906,23.1452862 L12.8583906,23.1452862 Z M12.1430473,23.1473072 C12.1332178,23.1423925 12.1221763,23.1452606 12.1156365,23.1525954 L12.1099173,23.1665331 L12.0757714,23.7811639 C12.0751323,23.7926639 12.0828099,23.8018602 12.0926481,23.8045676 L12.108256,23.8032389 L12.3092106,23.7104931 L12.3186497,23.7024347 L12.3186497,23.7024347 L12.3225043,23.6906389 L12.340401,23.2611114 L12.337245,23.2485176 L12.337245,23.2485176 L12.3277531,23.2396597 L12.1430473,23.1473072 Z" id="MingCute" fill-rule="nonzero">

                    </path>
                    <path d="M10.9393,7.93932 C11.5251,7.35354 12.4749,7.35354 13.0607,7.93932 L18.7175,13.5962 C19.3033,14.182 19.3033,15.1317 18.7175,15.7175 C18.1317,16.3033 17.182,16.3033 16.5962,15.7175 L12,11.1213 L7.40381,15.7175 C6.81802,16.3033 5.86827,16.3033 5.28248,15.7175 C4.6967,15.1317 4.6967,14.182 5.28249,13.5962 L10.9393,7.93932 Z" id="路径" fill="#000000">

                    </path>
                </g>
            </g>
        </g>
    </symbol>
    <symbol id="icon-trash" viewBox="0 0 24 24" fill="none" xmlns="http://www.w3.org/2000/svg">
        <path d="M10 10V16M14 10V16M18 6V18C18 19.1046 17.1046 20 16 20H8C6.89543 20 6 19.1046 6 18V6M4 6H20M15 6V5C15 3.89543 14.1046 3 13 3H11C9.89543 3 9 3.89543 9 5V6" stroke="#ff0f0f" stroke-width="1.5" stroke-linecap="round" stroke-linejoin="round"/>
    </symbol>
    <symbol id="icon-add" viewBox="0 0 24 24" fill="none" xmlns="http://www.w3.org/2000/svg">
        <g id="Edit / Add_Plus">
            <path id="Vector" d="M6 12H12M12 12H18M12 12V18M12 12V6" stroke="#000000" stroke-width="2" stroke-linecap="round" stroke-linejoin="round"/>
        </g>
    </symbol>
    <symbol id="icon-question" version="1.1" xmlns="http://www.w3.org/2000/svg"
            xmlns:xlink="http://www.w3.org/1999/xlink"
            viewBox="0 0 512 512" xml:space="preserve">
        <style type="text/css">
            .st0{fill:#000000;}
        </style>
        <g>
            <path class="st0" d="M256,0C114.616,0,0,114.612,0,256s114.616,256,256,256s256-114.612,256-256S397.385,0,256,0z M207.678,378.794
                c0-17.612,14.281-31.893,31.893-31.893c17.599,0,31.88,14.281,31.88,31.893c0,17.595-14.281,31.884-31.88,31.884
                C221.959,410.678,207.678,396.389,207.678,378.794z M343.625,218.852c-3.596,9.793-8.802,18.289-14.695,25.356
                c-11.847,14.148-25.888,22.718-37.442,29.041c-7.719,4.174-14.533,7.389-18.769,9.769c-2.905,1.604-4.479,2.95-5.256,3.826
                c-0.768,0.926-1.029,1.306-1.496,2.826c-0.273,1.009-0.558,2.612-0.558,5.091c0,6.868,0,12.512,0,12.512
                c0,6.472-5.248,11.728-11.723,11.728h-28.252c-6.475,0-11.732-5.256-11.732-11.728c0,0,0-5.645,0-12.512
                c0-6.438,0.752-12.744,2.405-18.777c1.636-6.008,4.215-11.718,7.508-16.694c6.599-10.083,15.542-16.802,23.984-21.48
                c7.401-4.074,14.723-7.455,21.516-11.281c6.789-3.793,12.843-7.91,17.302-12.372c2.988-2.975,5.31-6.05,7.087-9.52
                c2.335-4.628,3.955-10.067,3.992-18.389c0.012-2.463-0.698-5.702-2.632-9.405c-1.926-3.686-5.066-7.694-9.264-11.29
                c-8.45-7.248-20.843-12.545-35.054-12.521c-16.285,0.058-27.186,3.876-35.587,8.62c-8.36,4.776-11.029,9.595-11.029,9.595
                c-4.268,3.718-10.603,3.85-15.025,0.314l-21.71-17.397c-2.719-2.173-4.322-5.438-4.396-8.926c-0.063-3.479,1.425-6.81,4.061-9.099
                c0,0,6.765-10.43,22.451-19.38c15.62-8.992,36.322-15.488,61.236-15.429c20.215,0,38.839,5.562,54.268,14.661
                c15.434,9.148,27.897,21.744,35.851,36.876c5.281,10.074,8.525,21.43,8.533,33.38C349.211,198.042,347.248,209.058,343.625,218.852
                z"/>
        </g>
    </symbol>
</svg>
